<svg xmlns="http://www.w3.org/2000/svg" width="600" height="400" viewBox="0 0 600 400">
  <defs>
    <linearGradient id="bg" x1="0" y1="0" x2="1" y2="1">
      <stop offset="0%" stop-color="#570DF8"/>
      <stop offset="100%" stop-color="#F000B8"/>
    </linearGradient>
  </defs>
  <rect width="600" height="400" fill="url(#bg)"/>
  <rect x="40" y="120" width="160" height="48" rx="24" fill="#FFFFFF" opacity="0.9"/>
  <rect x="220" y="120" width="160" height="48" rx="24" fill="#FFFFFF" opacity="0.5"/>
  <rect x="400" y="120" width="160" height="48" rx="24" fill="#FFFFFF" opacity="0.25"/>
  <rect x="40" y="195" width="250" height="140" rx="12" fill="#FFFFFF" opacity="0.12" stroke="#FFFFFF" stroke-opacity="0.2"/>
  <rect x="60" y="215" width="120" height="10" rx="4" fill="#FFFFFF" opacity="0.4"/>
  <rect x="60" y="240" width="200" height="6" rx="3" fill="#FFFFFF" opacity="0.2"/>
  <rect x="60" y="280" width="80" height="30" rx="15" fill="#FFFFFF" opacity="0.6"/>
  <rect x="310" y="195" width="250" height="140" rx="12" fill="#FFFFFF" opacity="0.12" stroke="#FFFFFF" stroke-opacity="0.2"/>
  <rect x="330" y="215" width="100" height="10" rx="4" fill="#FFFFFF" opacity="0.4"/>
  <rect x="330" y="240" width="180" height="6" rx="3" fill="#FFFFFF" opacity="0.2"/>
  <rect x="330" y="280" width="80" height="30" rx="15" fill="#FFFFFF" opacity="0.6"/>
  <text x="300" y="370" text-anchor="middle" fill="#FFFFFF" font-family="system-ui" font-size="14" opacity="0.5">Playful Tailwind</text>
</svg>
