<svg version="1.1" id="Layer_1" xmlns="http://www.w3.org/2000/svg" xmlns:xlink="http://www.w3.org/1999/xlink" x="0px" y="0px"
	 width="100%" viewBox="0 0 400 416" enable-background="new 0 0 400 416" xml:space="preserve">
<path fill="#000000" opacity="1.000000" stroke="none" 
	d="
M60.375000,417.000000 
	C55.388405,415.271881 50.519928,415.501862 45.743710,415.316162 
	C36.759666,414.966858 36.715801,415.099457 34.144405,406.356812 
	C30.722403,394.722168 26.557652,383.307922 23.989466,371.418091 
	C22.353966,363.846283 22.968634,362.511688 30.570589,363.080688 
	C55.579243,364.952576 80.544540,367.286987 104.870811,373.923645 
	C109.358582,375.147980 113.895012,376.153809 118.092834,378.297852 
	C120.907120,379.735229 122.843559,381.750916 123.991867,384.725922 
	C126.623634,391.544189 132.253372,392.637543 137.921021,387.488831 
	C136.716232,385.279510 133.658081,385.767914 132.085678,383.512360 
	C157.404526,373.754272 183.087524,367.841736 210.312622,370.477264 
	C216.749710,371.100403 223.185577,371.649048 229.613998,372.407654 
	C233.924210,372.916290 233.941818,374.669006 232.639618,378.030151 
	C227.716064,390.738190 222.970352,403.515137 218.079056,416.633179 
	C202.312439,417.000000 186.624878,417.000000 170.473663,416.640015 
	C170.683167,414.970459 171.380112,413.672485 172.024368,412.348846 
	C173.304428,409.719025 172.520187,407.507446 170.413116,405.761017 
	C168.202850,403.929077 165.804016,403.133179 162.992386,405.059113 
	C168.379669,409.691956 168.410919,410.223755 163.907394,415.831757 
	C163.598679,416.216156 163.302200,416.610382 163.000000,417.000000 
	C159.638718,417.000000 156.277420,417.000000 152.557922,416.676239 
	C153.343918,414.281921 156.641113,413.717285 156.246567,409.940796 
	C148.789230,408.134338 144.216171,413.429474 139.000000,417.000000 
	C136.299988,417.000000 133.599976,417.000000 130.566437,416.680847 
	C132.382080,413.377686 136.493286,412.566132 138.241745,409.158905 
	C138.823532,408.025146 139.745621,406.827332 138.668167,405.515900 
	C137.874222,404.549530 136.734756,404.182312 135.540665,404.488586 
	C126.689102,406.758972 118.277908,409.878967 112.000000,417.000000 
	C107.975456,417.000000 103.950912,417.000000 99.550735,416.669006 
	C101.751793,411.207275 106.620758,408.005219 110.566063,403.503296 
	C107.648216,401.652008 105.266548,401.084198 102.227692,402.019440 
	C97.932175,403.341400 94.665665,406.097443 91.186043,408.657318 
	C84.822334,413.339020 78.302849,414.904877 70.824745,410.605896 
	C66.825760,408.306976 62.307030,406.273712 57.032890,407.717987 
	C57.943085,411.785187 62.247250,413.272278 63.000000,417.000000 
	C62.250000,417.000000 61.500000,417.000000 60.375000,417.000000 
z"/>
<path fill="#000000" opacity="1.000000" stroke="none" 
	d="
M169.322876,89.104431 
	C202.862411,78.122078 233.149460,83.282928 258.715027,107.306442 
	C282.564606,129.717468 290.136841,169.799973 269.252472,198.519867 
	C252.684280,221.304230 224.382095,226.037582 200.866913,216.336472 
	C198.557434,215.383698 196.428253,214.075195 194.831039,212.024399 
	C192.834213,209.460480 191.793350,206.610306 193.593307,203.726303 
	C195.372391,200.875778 198.405075,200.236298 201.562210,201.054321 
	C206.074478,202.223450 210.610703,203.120178 215.227921,203.847214 
	C242.856277,208.197693 261.050873,186.188324 262.961761,165.382614 
	C263.022675,164.719223 263.116150,164.058609 263.203278,163.397858 
	C264.700348,152.048767 261.511597,147.144760 251.113602,142.197403 
	C226.726578,130.594086 204.113953,137.912354 184.665970,155.379730 
	C179.299530,160.199631 175.796066,161.022369 171.059830,157.576691 
	C166.445023,154.219360 165.705780,149.436462 169.474640,145.095703 
	C181.134140,131.667038 196.217484,124.618645 213.508270,121.671669 
	C227.746887,119.244904 241.176956,122.554474 255.569183,127.726524 
	C244.802719,113.667633 231.536896,105.691795 215.585983,102.455421 
	C182.669189,95.776756 152.627350,112.226639 136.673004,141.309341 
	C118.614227,174.228180 120.269531,207.225677 140.581757,238.266327 
	C155.212875,260.625275 176.741180,273.307373 204.026825,275.878174 
	C217.839783,277.179626 231.231598,276.078339 244.639206,273.224609 
	C245.621429,273.015533 246.590302,272.730499 247.482346,273.613037 
	C247.813934,275.752686 246.025452,276.344727 244.691086,277.203766 
	C218.298538,294.194824 190.597809,294.561615 163.503143,280.608093 
	C146.420456,271.810608 128.681458,263.838501 112.985229,252.469421 
	C85.769402,232.756424 69.938255,205.964523 65.809120,172.774628 
	C60.567055,130.639084 75.103630,95.251251 104.921822,65.813934 
	C124.544243,46.442142 148.060989,35.004185 175.745163,32.487392 
	C201.969711,30.103304 227.655060,31.056293 251.686172,43.587254 
	C257.609161,46.675777 263.364075,49.960186 268.338287,54.516125 
	C271.383301,57.305092 272.257080,60.568684 271.335968,64.443367 
	C270.090118,69.684097 265.641632,71.818878 261.106232,68.928841 
	C254.912674,64.982185 248.717712,61.047703 241.926849,58.248112 
	C204.674881,42.890751 167.987503,43.828388 134.067368,66.122269 
	C104.796837,85.360229 87.683609,113.527924 84.187729,148.828262 
	C81.363808,177.343323 89.789680,202.731598 108.015526,224.811279 
	C110.642990,227.994308 113.782188,230.754974 117.268188,233.377411 
	C116.306503,231.213715 115.353745,229.046005 114.381721,226.886963 
	C105.418221,206.977432 103.714172,186.263626 107.293716,164.896317 
	C110.459572,145.998489 118.501648,129.487534 130.976929,115.029213 
	C141.334839,103.024826 153.961807,94.406868 169.322876,89.104431 
z"/>
<path fill="#000000" opacity="1.000000" stroke="none" 
	d="
M337.467468,313.405029 
	C339.769623,314.486938 341.719025,315.425751 343.684937,316.328705 
	C353.755768,320.954620 360.445465,328.200867 363.655609,339.159424 
	C367.395844,351.927704 371.173462,364.659454 374.026978,377.662994 
	C374.787628,381.129364 374.020905,383.258606 370.721863,384.878143 
	C345.250885,397.382568 318.331940,405.017883 290.367676,409.366852 
	C270.814270,412.407715 251.191284,414.609100 231.418060,415.429321 
	C230.120392,415.483124 228.762909,415.996948 227.488235,414.969696 
	C226.384705,413.097839 227.721664,411.525757 228.369003,409.907379 
	C233.005569,398.315887 237.315155,386.619171 240.877487,374.638092 
	C242.024399,370.780670 241.545731,368.109314 237.792831,366.451782 
	C233.983826,364.769470 233.551331,362.240295 234.662735,358.362579 
	C242.623840,330.586517 250.366058,302.747681 258.215790,274.793549 
	C261.741516,275.232605 263.056946,278.119049 265.050903,279.891937 
	C278.473663,291.826569 294.951508,297.748566 311.415222,303.637939 
	C320.032806,306.720612 328.761566,309.482452 337.467468,313.405029 
M271.862488,376.194946 
	C286.268463,375.015106 300.669739,373.772156 315.083649,372.698639 
	C318.804230,372.421539 320.592682,371.048828 319.808807,366.967987 
	C315.756775,366.391083 312.160583,368.079193 308.409729,368.400269 
	C302.865875,368.874786 302.189209,368.357819 303.035797,362.986237 
	C303.939484,357.252289 304.832428,351.516052 305.650238,345.769440 
	C306.104401,342.578064 304.609528,341.444489 301.395172,341.235657 
	C296.305298,340.904968 296.352570,344.912781 295.620361,347.819275 
	C294.080200,353.932770 293.033417,360.172424 291.844391,366.371857 
	C290.965088,370.956421 287.405518,370.260864 284.367828,370.002228 
	C280.508209,369.673645 282.072815,366.903198 282.347137,364.711670 
	C283.253601,357.470490 284.119232,350.223694 284.930206,342.971222 
	C285.291107,339.743896 283.500244,338.567078 280.487305,338.352600 
	C277.521118,338.141510 276.666473,339.340607 276.084045,342.232269 
	C274.985413,347.686829 274.997467,353.218475 274.956512,358.632202 
	C274.892181,367.135986 273.319977,373.238281 262.979156,372.412567 
	C261.554199,372.298828 260.388885,373.242859 260.551636,374.934418 
	C260.723389,376.720215 262.160187,376.904419 263.522308,376.860779 
	C266.009949,376.781128 268.493225,376.565887 271.862488,376.194946 
M306.431610,326.488220 
	C301.134125,324.828644 301.806427,329.352570 301.420227,331.860107 
	C300.861542,335.487640 303.805878,334.759644 306.262817,334.864532 
	C306.604095,332.103088 307.950134,329.702240 306.431610,326.488220 
z"/>
<path fill="#000000" opacity="1.000000" stroke="none" 
	d="
M125.037842,288.033752 
	C129.209106,284.945282 133.094421,282.080017 136.924484,279.142670 
	C139.186157,277.408142 140.818756,277.514160 141.779739,280.453796 
	C147.567413,298.157898 153.369781,315.857208 159.133591,333.569031 
	C159.325333,334.158234 159.157913,334.864288 159.157913,335.976776 
	C152.125717,337.663086 145.462036,340.584961 138.901733,343.762970 
	C137.556564,344.414642 136.291367,344.060272 135.126785,343.276794 
	C119.219711,332.574829 101.362373,333.069458 83.487976,334.716125 
	C71.077660,335.859375 58.694077,337.584045 46.614136,340.916168 
	C45.508129,341.221222 44.309456,341.186096 43.155300,341.321594 
	C39.807262,341.714783 38.651924,340.623505 39.509769,337.053345 
	C41.573933,328.462952 46.497017,322.089172 53.760170,317.331482 
	C65.027145,309.951080 77.708748,305.928162 90.278961,301.486816 
	C101.870697,297.391144 113.744499,293.934174 125.037842,288.033752 
z"/>
<path fill="#000000" opacity="1.000000" stroke="none" 
	d="
M301.250244,245.450500 
	C294.711029,248.166061 288.300537,249.813599 281.615479,250.284653 
	C278.020172,250.537994 275.073822,251.677643 272.326996,254.325394 
	C265.582947,260.826263 257.318420,261.738281 248.630493,259.258820 
	C242.715637,257.570770 238.238693,252.421509 238.064880,247.260132 
	C237.848465,240.833084 240.784271,235.943573 246.485413,233.083481 
	C254.643417,228.990875 262.921387,229.062195 270.688599,234.018494 
	C274.302063,236.324265 277.995605,237.290894 282.046906,236.646759 
	C303.121063,233.296066 318.160065,222.245743 325.844818,201.950439 
	C326.317749,200.701431 327.190979,199.161926 326.102661,198.191589 
	C322.683685,195.143372 324.514557,191.837479 325.196045,188.504379 
	C328.036469,174.612198 329.375183,160.620163 328.019928,146.435211 
	C327.787537,144.002701 327.241425,141.490479 328.223785,139.102463 
	C336.925537,137.168381 341.904541,139.663284 343.368317,148.082138 
	C345.821686,162.192581 346.352081,176.467377 344.252197,190.732605 
	C344.180298,191.221039 344.162384,191.854843 343.857330,192.151413 
	C336.368317,199.432220 336.343109,210.268097 331.074280,218.717682 
	C323.710144,230.527542 314.538177,239.884430 301.250244,245.450500 
z"/>
<path fill="#000000" opacity="1.000000" stroke="none" 
	d="
M224.169724,350.784912 
	C227.979385,353.974823 229.588211,357.903290 230.052383,362.353851 
	C230.223312,363.992798 230.424606,366.330261 228.243408,366.361023 
	C222.933594,366.435944 217.473236,366.848450 212.258118,364.262115 
	C214.035278,361.461731 217.018707,363.639984 219.407379,361.263519 
	C214.224548,353.409363 205.442062,351.198425 197.467712,349.716003 
	C173.179581,345.200958 150.000366,345.326324 137.542953,372.621582 
	C135.102371,371.442078 135.715393,368.821381 134.767960,366.983124 
	C130.405518,358.519043 123.074890,354.060089 114.383888,351.286987 
	C100.670120,346.911285 86.741982,348.238281 72.822540,349.771301 
	C67.581192,350.348572 62.371666,351.214752 57.144756,352.343140 
	C70.481857,353.570068 83.598877,355.819763 96.615410,358.651337 
	C104.751106,360.421143 112.780525,362.597046 120.340645,366.192108 
	C122.206390,367.079285 124.404190,367.776611 124.531578,371.652832 
	C93.789330,361.385040 62.469818,358.089966 30.408112,358.057617 
	C30.784815,352.995575 34.268597,351.908234 37.056320,350.568115 
	C45.228230,346.639709 54.099842,344.943176 62.940216,343.428589 
	C75.238304,341.321533 87.588310,339.397003 100.148392,339.970428 
	C112.604492,340.539093 124.797066,342.049988 134.578186,350.922272 
	C136.863327,352.995026 138.362289,351.552032 140.268845,350.472900 
	C167.014236,335.334778 194.082397,335.432800 221.389603,348.901123 
	C222.276657,349.338593 223.052734,350.001099 224.169724,350.784912 
z"/>
<path fill="#000000" opacity="1.000000" stroke="none" 
	d="
M179.758636,322.184998 
	C176.618011,322.511322 173.878616,322.850616 171.290207,323.171234 
	C170.521790,322.175415 170.650482,321.315216 171.128571,320.637146 
	C175.622223,314.263916 180.119446,307.892181 184.716904,301.593933 
	C185.733765,300.200928 187.398651,299.694580 189.151947,299.694702 
	C196.132767,299.695160 203.113678,299.711029 210.094360,299.679352 
	C211.852661,299.671387 213.450241,300.157745 214.647980,301.368805 
	C220.853516,307.643250 224.607147,315.601379 229.900345,322.178253 
	C228.311081,324.169312 227.202179,323.363251 226.140854,323.082214 
	C217.881744,320.895538 215.932571,321.732330 211.632294,329.187317 
	C210.260406,331.565643 209.571777,334.935638 206.146484,335.051208 
	C200.698257,335.235016 195.144989,335.598541 189.921432,333.503235 
	C188.412827,332.898102 188.507599,330.972717 187.893829,329.643433 
	C186.279892,326.147980 184.827560,322.511200 179.758636,322.184998 
z"/>
<path fill="#000000" opacity="1.000000" stroke="none" 
	d="
M279.106018,84.309090 
	C275.660156,81.545601 274.029785,78.511497 275.869385,74.501442 
	C277.298126,71.386978 279.702148,69.274422 283.223724,69.557266 
	C286.814545,69.845665 289.176727,72.083267 290.526184,75.493996 
	C291.614044,78.243629 290.709351,80.350677 288.857483,82.263359 
	C286.211670,84.996155 283.174927,86.247337 279.106018,84.309090 
z"/>
<path fill="#000000" opacity="1.000000" stroke="none" 
	d="
M227.308594,254.371826 
	C220.194550,254.435913 216.022003,250.272263 217.554123,244.964523 
	C218.548950,241.518143 220.683304,238.918823 224.498947,238.890564 
	C228.316605,238.862274 231.191559,240.869553 232.347351,244.604477 
	C233.755386,249.154510 231.761734,252.277954 227.308594,254.371826 
z"/>
<path fill="#000000" opacity="1.000000" stroke="none" 
	d="
M160.362000,187.298187 
	C165.156586,185.657700 168.975693,186.532166 171.230301,190.819870 
	C173.002197,194.189590 171.858841,197.344131 168.904633,199.568054 
	C165.607025,202.050446 162.106293,201.902161 158.871979,199.350006 
	C154.620377,195.995148 155.105072,191.435272 160.362000,187.298187 
z"/>
<path fill="#000000" opacity="1.000000" stroke="none" 
	d="
M207.998993,249.320709 
	C201.557373,251.031174 197.465775,248.930313 196.628922,243.811371 
	C196.055298,240.302597 197.423309,237.527390 200.457901,235.835999 
	C203.367050,234.214508 206.299164,234.778091 208.843674,236.832611 
	C211.702118,239.140625 211.916885,242.269104 210.858185,245.450241 
	C210.411057,246.793793 209.205154,247.884827 207.998993,249.320709 
z"/>
<path fill="#000000" opacity="1.000000" stroke="none" 
	d="
M313.161835,125.578674 
	C308.497986,127.244820 305.299652,125.613640 303.021942,122.025993 
	C301.054596,118.927193 301.934631,115.886932 304.092041,113.283844 
	C306.799866,110.016663 311.727142,109.964096 314.739838,112.966873 
	C318.362091,116.577293 317.877869,121.533142 313.161835,125.578674 
z"/>
<path fill="#000000" opacity="1.000000" stroke="none" 
	d="
M166.132812,221.045990 
	C161.663803,218.456696 160.593140,214.958542 162.617218,210.740936 
	C164.254242,207.329849 168.708405,206.226181 173.116653,207.953400 
	C176.845154,209.414291 177.822083,212.478134 177.137726,216.079163 
	C176.287125,220.555038 172.450897,222.313568 166.132812,221.045990 
z"/>
<path fill="#000000" opacity="1.000000" stroke="none" 
	d="
M292.811890,91.895844 
	C296.189667,88.725601 299.705292,88.562996 302.995361,90.893417 
	C305.753662,92.847183 306.650970,96.036011 305.872223,99.294876 
	C305.079285,102.613220 302.369629,103.992416 299.190979,104.226616 
	C296.134918,104.451782 293.817871,102.976463 292.169922,100.429161 
	C290.333252,97.590141 290.478394,94.842270 292.811890,91.895844 
z"/>
<path fill="#000000" opacity="1.000000" stroke="none" 
	d="
M308.608582,145.155975 
	C307.531921,140.900558 307.995026,137.421768 311.877899,135.409775 
	C315.056732,133.762604 318.033508,134.761261 320.541382,137.025238 
	C323.756378,139.927597 323.941864,144.928741 321.075806,147.634933 
	C317.797302,150.730606 311.876617,149.719070 308.608582,145.155975 
z"/>
<path fill="#000000" opacity="1.000000" stroke="none" 
	d="
M190.834412,230.195831 
	C192.261002,234.707016 191.284439,238.291473 187.384079,240.308014 
	C184.350525,241.876419 181.192276,241.266098 178.802994,238.523315 
	C175.808228,235.085495 176.215912,230.332794 179.693100,227.464737 
	C183.227707,224.549347 186.894745,225.349869 190.834412,230.195831 
z"/>
<path fill="#000000" opacity="1.000000" stroke="none" 
	d="
M167.728027,178.176620 
	C163.438278,178.425842 160.322372,177.166489 159.119720,173.222885 
	C158.066803,169.770294 159.522278,167.041199 162.434494,165.084015 
	C165.552856,162.988312 168.517899,163.860901 171.202438,165.894928 
	C175.873947,169.434479 174.319717,175.504211 167.728027,178.176620 
z"/>
<path fill="#000000" opacity="1.000000" stroke="none" 
	d="
M301.854370,192.624420 
	C302.171417,185.749908 305.143005,182.901520 310.630981,183.743286 
	C314.768707,184.377945 317.120270,188.135712 316.207672,192.724731 
	C315.637482,195.592041 313.967590,197.647720 311.076599,198.160431 
	C306.748016,198.928070 303.700195,197.011856 301.854370,192.624420 
z"/>
<path fill="#000000" opacity="1.000000" stroke="none" 
	d="
M310.416626,172.730194 
	C306.960632,169.478592 306.724823,165.986481 309.030579,162.586899 
	C311.020691,159.652649 314.107574,158.980240 317.447144,160.245834 
	C321.560486,161.804703 323.438751,166.201691 321.703857,170.002380 
	C319.850098,174.063431 315.766388,175.173676 310.416626,172.730194 
z"/>
<path fill="#000000" opacity="1.000000" stroke="none" 
	d="
M294.155060,206.854187 
	C299.727448,205.008362 302.811432,205.965652 304.515259,209.832764 
	C306.122253,213.480179 305.514526,216.812607 302.187134,219.044113 
	C298.651184,221.415482 295.170624,220.568161 292.367432,217.525116 
	C289.618683,214.541245 290.190094,211.007141 294.155060,206.854187 
z"/>
<path fill="#000000" opacity="1.000000" stroke="none" 
	d="
M278.280762,234.847626 
	C274.874451,232.284058 273.768524,229.229919 276.134827,226.016495 
	C278.204254,223.206238 281.211914,221.765442 284.884277,223.437866 
	C288.157837,224.928696 289.892029,227.310303 288.926483,230.966568 
	C287.981323,234.545715 283.428009,236.266251 278.280762,234.847626 
z"/>
</svg>