<svg version="1.1" id="Layer_1" xmlns="http://www.w3.org/2000/svg" xmlns:xlink="http://www.w3.org/1999/xlink" x="0px" y="0px"
	 width="100%" viewBox="0 0 400 448" enable-background="new 0 0 400 448" xml:space="preserve">
<path fill="#000000" opacity="1.000000" stroke="none" 
	d="
M215.819962,282.144531 
	C230.579315,284.487457 244.991425,283.962402 259.429779,283.012024 
	C259.804993,285.834045 257.612915,286.292480 256.288757,287.300842 
	C233.801468,304.425659 199.355988,300.915527 180.564285,287.413696 
	C168.125824,278.476654 155.304016,270.090332 142.896683,261.167877 
	C119.446838,244.304352 106.176460,220.925018 102.617180,192.091293 
	C101.338676,181.734161 101.509583,171.481735 103.654823,161.319641 
	C105.253006,153.748993 114.523087,151.232056 120.204834,156.563553 
	C121.718239,157.983658 121.090370,159.531326 120.832970,161.178513 
	C116.467590,189.114594 122.636604,214.318726 140.471786,236.469116 
	C140.554138,236.571396 140.770538,236.565720 141.370361,236.740234 
	C129.684448,202.471985 133.511566,171.201843 159.196762,143.561981 
	C155.395126,142.852234 152.154816,142.992691 148.901062,143.403976 
	C140.328949,144.487549 131.773209,145.963074 123.228630,146.892746 
	C109.738670,148.360474 101.167976,138.575684 103.137650,125.535370 
	C103.920906,120.349815 108.156136,117.405945 112.825958,115.594017 
	C116.182846,114.291512 117.252953,112.269241 117.864761,108.615547 
	C122.306923,82.087273 134.579361,60.669567 159.470108,48.223862 
	C165.935974,44.990849 173.123718,43.400700 178.308289,37.598541 
	C180.875641,34.725346 185.341125,34.849339 189.127182,34.361816 
	C197.103683,33.334690 205.062149,33.388279 212.930450,35.310284 
	C215.733612,35.995018 218.478592,37.050255 220.210541,39.394524 
	C222.946762,43.098076 226.788757,44.710819 230.893967,46.248341 
	C259.592773,56.996914 274.373199,78.992516 280.187683,107.986267 
	C281.121155,112.640976 282.301086,116.090981 287.263092,118.266426 
	C293.338715,120.930069 295.894897,128.043823 294.579071,134.863739 
	C293.282532,141.583649 288.203705,146.117020 280.647247,147.259079 
	C279.515717,147.430099 278.363922,147.467331 276.965576,147.588638 
	C276.909790,151.663788 279.194977,154.660889 280.651337,157.872284 
	C286.866425,171.577179 288.288940,185.625793 284.197052,200.176010 
	C276.414154,227.850876 240.517792,244.373978 215.724258,231.680176 
	C213.489502,230.536026 211.240982,229.349442 209.774475,227.250259 
	C208.539093,225.481949 207.273407,223.534744 208.595352,221.261444 
	C209.819931,219.155609 211.491562,217.685318 214.171738,217.648148 
	C216.214264,217.619812 218.101547,218.147018 220.047394,218.624924 
	C249.302444,225.809967 267.838196,208.956223 270.361755,183.276947 
	C270.956299,177.226913 267.437866,172.599716 261.922516,169.648041 
	C243.275711,159.668732 221.423920,162.717361 205.062286,177.653503 
	C203.590897,178.996689 202.125198,180.382629 200.486801,181.499191 
	C196.257294,184.381622 191.341583,183.792175 188.358292,180.198486 
	C185.805725,177.123611 186.314331,173.284683 189.643997,169.424408 
	C205.977661,150.487900 235.130127,142.672729 258.839325,153.668549 
	C259.425995,153.940659 260.064667,154.100769 260.764374,154.342590 
	C259.571533,148.859192 254.619843,143.960724 248.839691,143.423767 
	C231.282257,141.792709 213.650085,139.514267 196.075241,142.397293 
	C183.729111,144.422577 173.740570,151.373306 166.465698,161.327698 
	C148.858017,185.420715 148.566940,220.080872 165.228958,246.565689 
	C177.031433,265.326111 193.102097,278.098816 215.819962,282.144531 
M192.499954,109.711151 
	C216.641052,109.543755 240.762756,110.088432 264.859985,111.615105 
	C269.488068,111.908318 270.435669,110.758850 269.347168,105.960968 
	C266.575073,93.742249 261.308380,82.647469 253.284973,73.047043 
	C246.301178,64.690567 238.014984,57.875668 227.227448,53.681282 
	C227.325272,69.042206 230.263168,83.865456 228.754456,99.885086 
	C224.552246,96.412865 224.655365,92.651642 223.972336,89.444588 
	C221.479889,77.741989 219.533218,65.923302 217.050873,54.218338 
	C215.179993,45.396587 211.151535,42.342026 202.493851,42.306587 
	C199.495682,42.294312 196.496933,42.270657 193.499283,42.312832 
	C183.724442,42.450363 180.910172,44.845520 179.337204,54.617455 
	C177.277313,67.414169 175.344421,80.231316 173.291901,93.029251 
	C172.976135,94.998161 173.027649,97.361198 169.988998,98.217247 
	C168.733932,83.257538 170.090073,68.600021 170.743393,53.497326 
	C163.608994,54.975105 158.896362,58.831161 154.186356,62.341286 
	C139.747726,73.101616 131.424850,87.549759 129.082993,105.484779 
	C128.521896,109.781784 130.532593,110.818367 134.096619,110.646805 
	C139.740753,110.375099 145.379501,109.823875 151.024307,109.767220 
	C164.515015,109.631805 178.007919,109.715919 192.499954,109.711151 
M192.541672,127.836311 
	C197.699524,127.755287 202.926743,128.051971 207.951584,126.771179 
	C217.545532,124.325737 226.746750,124.514923 236.218643,128.048126 
	C246.606308,131.922928 258.110718,131.919876 268.402191,136.555939 
	C273.225220,138.728592 276.684814,137.134232 278.391083,132.579910 
	C279.799194,128.821350 277.793671,124.646843 273.548309,122.953178 
	C271.558105,122.159195 269.428955,121.640564 267.316986,121.236305 
	C251.136047,118.139084 234.807373,115.837440 218.357544,115.445801 
	C195.263672,114.895973 172.098755,114.273178 149.185379,118.280525 
	C139.899155,119.904602 130.302124,120.469528 121.779526,125.209343 
	C119.638184,126.400253 118.081711,127.788170 117.966698,130.549713 
	C117.690872,137.172623 122.119713,140.471359 128.881165,138.190063 
	C149.225800,131.325821 170.247040,128.688446 192.541672,127.836311 
z"/>
<path fill="#000000" opacity="1.000000" stroke="none" 
	d="
M261.433899,422.592712 
	C233.973129,425.295746 206.938004,426.699921 179.766312,425.557190 
	C163.975006,424.893066 148.253494,423.587158 132.512238,422.360687 
	C127.602745,421.978119 124.218742,421.106140 123.326714,415.053284 
	C122.540810,409.720612 121.252220,404.319000 119.344627,399.118317 
	C117.834229,395.000519 119.114624,390.381989 119.118050,386.140411 
	C119.128166,373.598389 115.650887,361.817505 113.508095,349.745575 
	C112.430016,343.671967 115.194939,340.389618 121.458282,340.730316 
	C124.249657,340.882141 124.148155,343.249542 124.294952,345.199860 
	C124.943222,353.812622 125.651611,362.423340 126.116730,371.046722 
	C126.621422,380.404083 129.579376,389.322144 130.811172,398.554565 
	C131.240143,401.769867 133.108444,404.735870 136.517929,406.181793 
	C138.792267,404.282532 136.972214,402.323700 136.781387,400.553833 
	C135.497177,388.642395 133.985611,376.749054 130.529770,365.231812 
	C129.455688,361.652222 130.615158,359.739136 134.011047,359.014038 
	C142.135834,357.279297 150.282013,355.644501 158.422592,353.984161 
	C160.031326,353.656006 161.524429,353.922974 162.180542,355.603607 
	C163.228806,358.288696 165.299713,358.645721 167.825363,358.643433 
	C199.971313,358.614380 232.117310,358.640289 264.263306,358.650299 
	C267.857361,358.651398 271.729462,359.479980 272.347382,353.920319 
	C272.593994,351.701324 274.918793,351.757965 276.859283,352.173492 
	C285.964355,354.123260 295.069702,356.072815 304.185883,357.969757 
	C307.416321,358.641937 308.030701,360.287323 307.844666,363.641876 
	C306.997131,378.925903 306.538788,394.250702 308.255127,409.506531 
	C308.703278,413.490082 307.671875,415.260254 303.678741,415.936768 
	C289.771362,418.293091 276.029419,421.679291 261.433899,422.592712 
M279.431091,397.914398 
	C280.924805,397.917389 282.426910,397.819702 283.910583,397.943329 
	C287.529358,398.244781 288.912201,396.711700 288.943817,393.041412 
	C288.975555,389.357269 287.586792,388.330292 283.994995,388.073700 
	C271.561432,387.185486 259.120667,387.429016 246.682190,387.200714 
	C242.748413,387.128510 241.015305,388.132416 241.090164,392.457672 
	C241.160812,396.539124 242.474091,398.001068 246.587692,397.927399 
	C257.205933,397.737152 267.830353,397.894196 279.431091,397.914398 
M146.457703,374.976807 
	C149.380798,379.118347 153.120270,379.839325 155.536011,376.694275 
	C156.985336,374.807434 157.129807,372.713348 155.961609,370.681213 
	C154.755768,368.583618 152.717987,367.842499 150.449875,368.358521 
	C147.421143,369.047546 146.244034,371.250763 146.457703,374.976807 
M282.888275,375.508820 
	C283.782745,375.892151 284.674774,376.595184 285.572083,376.601990 
	C288.954529,376.627594 290.775787,374.812805 290.727875,371.407837 
	C290.680115,368.011536 288.840576,366.168457 285.440735,366.332214 
	C282.075836,366.494293 280.981781,368.779388 281.235870,371.784637 
	C281.327545,372.868774 281.970062,373.906403 282.888275,375.508820 
z"/>
<path fill="#000000" opacity="1.000000" stroke="none" 
	d="
M313.895630,394.180023 
	C315.048981,384.245026 314.541016,374.735352 314.871674,365.253723 
	C315.058136,359.907074 311.790466,355.312439 312.727631,349.665955 
	C314.792450,337.225098 316.005646,324.643158 317.585876,312.121277 
	C317.795013,310.464111 318.187408,308.848053 319.648132,307.144073 
	C336.480560,313.732788 351.279297,322.518677 356.150543,341.791046 
	C360.102295,357.425598 363.052551,373.279327 366.069733,389.117462 
	C366.959076,393.785736 365.718872,396.363159 361.129181,398.351410 
	C347.502838,404.254333 333.669525,409.402771 319.168457,412.718506 
	C315.473999,413.563324 313.770935,412.574860 313.859314,408.657410 
	C313.964539,403.993439 313.893219,399.325470 313.895630,394.180023 
z"/>
<path fill="#000000" opacity="1.000000" stroke="none" 
	d="
M194.199860,311.752075 
	C196.361359,313.053101 198.136566,314.322083 200.063339,315.289062 
	C206.814178,318.677124 211.468155,323.767181 213.624359,331.109009 
	C214.104462,332.743774 214.323486,335.093475 216.747711,335.050446 
	C218.723419,335.015411 219.316986,333.167389 219.818909,331.555939 
	C222.306076,323.570618 228.097580,318.646637 234.916489,314.326477 
	C245.755981,307.459015 256.123077,299.919128 264.575165,290.078094 
	C267.061249,287.183502 270.232941,285.687836 273.922913,287.216614 
	C278.093231,288.944427 277.808319,292.959351 277.109650,296.296417 
	C274.893555,306.881104 272.172302,317.380127 267.251526,327.085541 
	C264.395172,332.719208 260.936371,338.046600 257.770477,343.524445 
	C255.846786,346.852936 253.956329,347.327454 251.453720,343.921783 
	C248.500443,339.902740 245.484497,335.880890 241.391418,332.882996 
	C239.433487,331.448883 237.529160,329.836365 234.064804,329.773071 
	C237.807281,339.601257 234.547531,346.727966 226.218536,351.635498 
	C219.669968,355.493988 212.457306,355.165253 206.886749,350.729675 
	C200.182144,345.391174 196.832825,337.901733 201.703308,327.990601 
	C190.430801,332.313599 185.944595,342.110657 178.209305,349.248993 
	C175.790924,345.726929 173.493958,342.553864 171.383560,339.261230 
	C169.137421,335.756836 167.244049,332.017120 164.876221,328.602325 
	C161.995850,324.448334 161.438599,320.171783 161.432220,315.074829 
	C161.421844,306.797729 161.949814,298.707611 163.691757,290.655304 
	C163.889099,289.743042 163.410828,288.617645 165.029694,287.733490 
	C172.731461,297.855011 183.727448,304.195343 194.199860,311.752075 
z"/>
<path fill="#000000" opacity="1.000000" stroke="none" 
	d="
M96.912872,327.113403 
	C100.834030,331.864685 105.012894,336.070312 103.457428,342.810516 
	C102.903595,345.210449 104.802383,347.166779 105.955940,349.170624 
	C111.068977,358.052460 111.882927,367.880524 110.981972,377.653656 
	C110.667831,381.061340 109.745995,384.283875 110.089630,387.938049 
	C110.454628,391.819489 107.857826,395.149506 105.017822,397.851807 
	C102.398399,400.344238 99.634056,402.684387 96.721207,405.280884 
	C99.838181,408.484131 102.670128,407.782532 105.724510,405.789276 
	C108.312302,404.100525 110.209770,401.285553 113.518188,400.763062 
	C116.759727,403.016602 114.323997,406.108643 114.818382,408.725800 
	C116.761513,419.012207 116.568939,419.366791 106.159950,418.236389 
	C91.440697,416.637909 76.816872,414.233063 62.641773,409.805420 
	C51.739334,406.400024 46.486214,397.494141 42.861656,387.635376 
	C40.121460,380.182129 40.658173,372.209381 41.096916,364.384460 
	C41.580933,355.752075 42.400436,347.133423 42.670288,338.496216 
	C42.812275,333.951599 44.372181,330.383545 47.825905,327.655579 
	C55.270615,321.775299 63.751999,317.803070 73.011520,316.167145 
	C80.318375,314.876190 86.635735,318.322784 92.276726,322.778809 
	C93.838486,324.012512 95.204681,325.493744 96.912872,327.113403 
M59.133518,334.638214 
	C56.546371,335.785553 53.567314,336.688080 53.367378,340.149384 
	C52.638420,352.769135 51.273651,365.413696 51.568596,378.015656 
	C51.950230,394.321564 65.368713,402.558685 80.569382,396.837921 
	C86.559196,394.583649 91.859497,391.150787 97.013802,387.461884 
	C98.506485,386.393555 100.090820,385.101685 99.326599,382.950256 
	C98.650139,381.046021 96.747711,381.023926 95.098099,380.960663 
	C89.114922,380.731323 83.126602,380.630493 77.144745,380.375122 
	C74.881691,380.278473 72.427460,380.338531 71.189407,377.808472 
	C71.864937,375.545380 73.759293,375.900391 75.316971,375.674377 
	C82.072739,374.693909 88.828773,373.712433 95.594971,372.808044 
	C98.758865,372.385162 101.370331,370.764160 101.393547,367.660797 
	C101.420044,364.118256 98.251610,363.376190 95.228912,363.346008 
	C89.231262,363.286072 83.232750,363.317505 77.234741,363.284515 
	C75.306580,363.273895 73.296555,363.367157 72.144577,361.424835 
	C73.162346,359.149902 74.958908,358.857269 76.791138,358.567932 
	C82.858665,357.609802 88.915977,356.585907 94.988190,355.659119 
	C98.974548,355.050751 99.403099,352.735901 98.078545,349.527893 
	C96.761780,346.338715 93.986298,345.907318 91.030869,345.958496 
	C85.702988,346.050720 80.376472,346.232178 75.048416,346.297119 
	C73.650734,346.314209 72.310898,345.814270 72.113785,344.182434 
	C71.902328,342.431824 73.226028,341.984528 74.613495,341.700989 
	C77.547188,341.101501 80.533707,340.677704 83.396492,339.835052 
	C86.976479,338.781281 90.944183,339.632263 94.648720,337.735504 
	C92.212891,332.597565 88.011063,330.483826 83.212105,329.343506 
	C74.653938,327.309967 67.268135,331.006927 59.133518,334.638214 
z"/>
<path fill="#000000" opacity="1.000000" stroke="none" 
	d="
M126.461235,331.287781 
	C123.871155,331.017639 121.964951,331.275726 120.107826,332.912720 
	C116.007545,336.526978 111.616074,335.701263 109.973907,330.622223 
	C108.506828,326.084717 106.143227,324.322144 101.432732,324.012024 
	C96.236336,323.669922 94.154312,320.217926 95.329437,315.086792 
	C95.971367,312.283844 94.651382,310.673920 92.654045,309.220398 
	C89.952988,307.254761 87.222778,305.261597 85.918732,302.041229 
	C83.877396,297.000122 86.028984,292.385895 91.275497,290.832886 
	C94.378204,289.914490 95.650337,288.321533 93.917542,285.408722 
	C92.091568,282.339294 90.867851,279.344635 93.613869,276.285400 
	C96.158508,273.450562 98.935928,272.560181 102.897957,274.244202 
	C106.012260,275.567902 108.999878,273.738129 109.521912,270.173035 
	C110.080879,266.355743 112.351929,264.628204 115.640327,263.907471 
	C118.886818,263.195892 121.678337,264.389557 123.297508,267.295685 
	C125.551720,271.341583 128.734543,270.292786 131.935455,269.184448 
	C137.751038,267.170776 142.862625,270.495728 143.392868,276.733276 
	C143.855377,282.174164 146.256500,284.932556 150.956741,284.539673 
	C154.216034,284.267212 157.162415,284.023529 158.001282,287.910889 
	C158.874512,291.957428 158.624374,295.973663 154.960175,298.789612 
	C150.080002,302.540009 149.842926,304.552307 154.223877,308.681732 
	C156.733505,311.047241 158.061523,313.598999 156.651489,317.100128 
	C155.161331,320.800140 152.577972,322.661133 148.553223,322.342010 
	C147.229614,322.237030 145.916718,322.000031 144.593536,321.885986 
	C142.320602,321.690033 140.762589,322.538452 141.621368,325.008484 
	C142.901596,328.690674 142.314911,331.747345 138.861176,333.574005 
	C135.312943,335.450623 131.600800,336.138245 128.576172,332.290039 
	C128.205200,331.818085 127.432945,331.661469 126.461235,331.287781 
M134.862152,306.047607 
	C137.296570,297.480927 134.685364,290.258881 128.090988,287.319885 
	C120.889824,284.110504 113.380905,286.691315 109.870323,293.582275 
	C106.177048,300.831848 108.502373,308.171539 115.790085,312.267273 
	C122.639496,316.116699 130.264893,313.884644 134.862152,306.047607 
z"/>
<path fill="#000000" opacity="1.000000" stroke="none" 
	d="
M311.044983,253.129852 
	C300.978943,259.532959 290.391693,263.210632 278.760956,263.361267 
	C275.975067,263.397339 274.126526,264.678223 272.173889,266.318024 
	C266.478638,271.100739 260.211578,274.199249 252.468323,272.274933 
	C244.849686,270.381561 239.779068,264.800079 239.681992,258.233978 
	C239.581757,251.453537 244.592911,245.052948 252.095047,243.266678 
	C259.339844,241.541718 266.858917,241.901230 272.373016,247.217041 
	C277.224335,251.893890 282.063110,252.267059 287.815521,250.598251 
	C302.450287,246.352615 314.649780,238.899338 321.530518,224.631943 
	C323.100830,221.375809 324.831329,218.044006 322.818268,214.194885 
	C322.086517,212.795670 323.026215,211.282745 323.538116,209.877960 
	C328.351074,196.669281 329.386597,183.037109 328.107758,169.143677 
	C328.001038,167.984360 327.930634,166.818588 327.913208,165.654785 
	C327.872833,162.962479 328.724335,161.727463 331.850494,162.374069 
	C339.456757,163.947327 341.031189,165.265579 342.154419,172.907120 
	C343.688721,183.345428 343.104675,193.855682 342.672119,204.325531 
	C342.517426,208.070190 341.737671,211.967056 337.882690,214.248322 
	C335.999451,215.362778 335.972931,217.680298 335.380463,219.528549 
	C330.974823,233.273087 323.389435,244.698547 311.044983,253.129852 
z"/>
<path fill="#000000" opacity="1.000000" stroke="none" 
	d="
M63.129768,282.847900 
	C61.833557,278.973450 59.786922,276.821411 55.967541,275.531189 
	C48.712578,273.080414 45.152756,266.973633 43.338314,259.905304 
	C40.092690,247.261780 45.403927,234.625153 56.532936,228.165222 
	C58.213928,227.189468 59.883400,225.961014 62.564690,226.367004 
	C64.209099,231.500046 62.791893,237.103394 64.114182,242.386322 
	C64.834656,245.264832 64.872444,248.309387 65.298698,251.267426 
	C66.157005,257.223694 69.448112,259.542175 75.856705,258.775635 
	C81.513130,258.099091 84.580025,254.479050 83.521324,248.684174 
	C82.448738,242.813202 80.606537,237.083817 79.133080,231.284363 
	C78.816734,230.039246 78.069466,228.795502 78.850250,227.466370 
	C87.999794,227.064377 99.828072,235.598846 102.818703,244.711868 
	C105.902740,254.109558 102.271889,261.190186 96.048843,268.230957 
	C89.872353,275.219086 81.620209,276.121552 72.256508,277.584778 
	C80.026512,285.689545 79.584595,295.410583 82.623268,303.912689 
	C83.519272,306.419708 82.619690,307.720734 80.123451,308.181244 
	C78.813324,308.422974 77.496368,308.653442 76.209885,308.992767 
	C72.407738,309.995667 70.467484,308.762939 69.629227,304.706909 
	C68.115166,297.380920 66.139656,290.145264 63.129768,282.847900 
z"/>
<path fill="#000000" opacity="1.000000" stroke="none" 
	d="
M310.041748,308.952454 
	C308.561798,322.084686 306.691895,334.747711 306.068024,347.538055 
	C305.793762,353.160614 305.232513,353.555115 299.773712,352.292664 
	C292.499542,350.610352 285.240723,348.834290 277.912018,347.428558 
	C275.041290,346.877899 274.373688,345.737213 274.883026,343.037292 
	C278.079498,326.093231 281.179810,309.131042 284.359955,291.914917 
	C287.917633,291.986145 290.715149,294.325531 293.931396,295.392609 
	C297.238983,296.490051 300.354706,298.253754 303.712646,299.091095 
	C308.892426,300.382690 311.591919,302.927826 310.041748,308.952454 
z"/>
<path fill="#000000" opacity="1.000000" stroke="none" 
	d="
M132.481415,348.283447 
	C132.126663,347.100342 131.977203,346.268036 131.651260,345.511810 
	C129.658325,340.888031 131.392242,338.622681 136.179199,338.228271 
	C141.151108,337.818634 145.533844,336.326843 148.812637,332.192200 
	C149.762558,330.994263 151.387741,330.049622 153.774979,330.446228 
	C156.537079,336.088470 157.332260,342.820801 161.592514,348.803040 
	C152.803146,350.493317 144.866272,352.069885 136.907837,353.528809 
	C132.966202,354.251434 133.694656,350.601349 132.481415,348.283447 
z"/>
<path fill="#000000" opacity="1.000000" stroke="none" 
	d="
M313.860107,126.384705 
	C311.956238,130.435989 309.459473,132.812943 305.054718,131.156387 
	C301.391022,129.778549 299.515961,125.663368 300.526978,121.700294 
	C301.485687,117.942207 304.189972,116.711769 307.689941,116.951683 
	C311.804199,117.233711 314.136475,120.711212 313.860107,126.384705 
z"/>
<path fill="#000000" opacity="1.000000" stroke="none" 
	d="
M293.310516,111.068207 
	C287.906921,108.115974 286.114380,103.857811 288.512939,100.161934 
	C290.161987,97.620949 292.548248,96.303146 295.676086,96.797348 
	C298.819519,97.294029 300.472748,99.327072 301.365387,102.256203 
	C302.325714,105.407257 301.234802,107.715286 298.734009,109.565262 
	C297.238831,110.671356 295.639587,111.458519 293.310516,111.068207 
z"/>
<path fill="#000000" opacity="1.000000" stroke="none" 
	d="
M216.871582,252.196518 
	C221.003067,248.322189 224.206238,248.004639 227.491104,250.956711 
	C230.405197,253.575577 230.528229,256.740845 228.574875,259.895630 
	C226.452393,263.323608 223.211563,264.385254 219.590652,262.632721 
	C215.096558,260.457611 214.878204,256.718750 216.871582,252.196518 
z"/>
<path fill="#000000" opacity="1.000000" stroke="none" 
	d="
M315.134186,152.828262 
	C307.790497,149.838425 305.785797,143.907211 310.490356,139.991776 
	C312.829315,138.045105 315.594055,137.455078 318.334229,139.011871 
	C320.933014,140.488388 322.578186,142.862076 322.131439,145.960144 
	C321.591248,149.705994 319.610626,152.375259 315.134186,152.828262 
z"/>
<path fill="#000000" opacity="1.000000" stroke="none" 
	d="
M178.443542,218.375702 
	C175.870926,214.472015 175.840622,211.088409 179.585068,208.513657 
	C182.425812,206.560303 187.953796,207.833755 189.998062,210.666992 
	C192.312592,213.874802 191.155411,216.911255 188.785629,219.219162 
	C185.478989,222.439468 181.908203,221.984283 178.443542,218.375702 
z"/>
<path fill="#000000" opacity="1.000000" stroke="none" 
	d="
M321.513031,162.360397 
	C324.633667,165.295364 324.867065,168.357849 322.909424,171.563858 
	C321.454834,173.946075 319.441345,175.592850 316.375488,175.016418 
	C313.806427,174.533401 311.526062,173.453186 310.924652,170.669220 
	C310.325043,167.893494 310.149475,164.981506 312.501892,162.798981 
	C315.158325,160.334396 318.152100,160.485397 321.513031,162.360397 
z"/>
<path fill="#000000" opacity="1.000000" stroke="none" 
	d="
M209.878021,243.254959 
	C211.766235,246.868469 211.733963,249.983276 209.012619,252.696777 
	C207.002090,254.701492 204.584198,254.595093 202.080658,253.760040 
	C199.246597,252.814789 197.829788,250.761017 197.433121,247.903275 
	C197.046768,245.119873 198.184113,243.004364 200.572418,241.702301 
	C203.826691,239.928146 206.919388,240.250809 209.878021,243.254959 
z"/>
<path fill="#000000" opacity="1.000000" stroke="none" 
	d="
M309.859497,187.966843 
	C311.695160,184.357803 314.431732,183.092636 317.896301,184.052673 
	C320.468811,184.765549 322.098480,186.555573 322.309540,189.459702 
	C322.625397,193.805603 319.794281,197.974319 316.412323,197.936035 
	C311.921417,197.885223 309.281128,194.084457 309.859497,187.966843 
z"/>
<path fill="#000000" opacity="1.000000" stroke="none" 
	d="
M186.037201,226.712372 
	C191.897858,225.060501 195.502197,226.542114 196.183472,230.715363 
	C196.739395,234.120850 195.802399,237.001953 192.325516,238.460144 
	C188.936951,239.881317 186.057571,238.951218 184.037415,236.030563 
	C181.650986,232.580368 182.415741,229.469543 186.037201,226.712372 
z"/>
<path fill="#000000" opacity="1.000000" stroke="none" 
	d="
M311.839661,218.990143 
	C310.647369,218.850098 309.841278,218.666290 309.038177,218.470230 
	C305.480377,217.601547 303.548492,215.363693 303.864594,211.676422 
	C304.103577,208.888306 305.322357,206.408875 308.367920,205.836838 
	C311.685059,205.213776 314.817657,205.889099 316.378662,209.288315 
	C317.849579,212.491470 317.090851,215.465469 314.429901,217.819321 
	C313.832489,218.347794 312.968475,218.574890 311.839661,218.990143 
z"/>
<path fill="#000000" opacity="1.000000" stroke="none" 
	d="
M191.870209,195.435638 
	C190.379807,199.647568 187.481125,200.687607 183.803207,200.076202 
	C180.740173,199.567032 179.135117,197.338257 178.956146,194.525787 
	C178.751175,191.304794 180.416840,188.785675 183.465469,187.459671 
	C188.406219,185.310684 192.321899,188.813629 191.870209,195.435638 
z"/>
<path fill="#000000" opacity="1.000000" stroke="none" 
	d="
M293.918518,226.889740 
	C298.500305,222.893982 301.404785,223.016647 304.531799,227.018250 
	C306.698914,229.791443 305.826813,233.946442 302.649292,235.987335 
	C299.445801,238.044861 294.955536,236.610260 292.883423,233.060150 
	C291.552765,230.780396 292.260773,228.989182 293.918518,226.889740 
z"/>
<path fill="#000000" opacity="1.000000" stroke="none" 
	d="
M291.114471,246.916046 
	C288.280823,250.118317 285.250244,251.300797 281.742981,248.953033 
	C279.514069,247.460983 278.496765,245.310852 279.380737,242.532166 
	C280.590149,238.730637 283.788086,236.790115 287.435303,238.054214 
	C291.548126,239.479706 293.153046,242.304550 291.114471,246.916046 
z"/>
<path fill="#000000" opacity="1.000000" stroke="none" 
	d="
M41.650681,399.792297 
	C38.477257,401.233917 33.196259,399.739502 31.698595,396.883636 
	C29.927080,393.505585 30.338604,390.298950 33.748745,387.358612 
	C37.381084,390.937775 38.931389,395.583405 41.650681,399.792297 
z"/>
</svg>