<svg version="1.1" id="Layer_1" xmlns="http://www.w3.org/2000/svg" xmlns:xlink="http://www.w3.org/1999/xlink" x="0px" y="0px"
	 width="100%" viewBox="0 0 400 448" enable-background="new 0 0 400 448" xml:space="preserve">
<path fill="#000000" opacity="1.000000" stroke="none" 
	d="
M180.937317,37.631699 
	C201.307678,36.238850 221.028885,37.202400 240.027557,43.863647 
	C251.034500,47.722866 261.689484,52.491859 270.705200,60.248013 
	C273.155609,62.356056 274.509918,64.687622 274.381104,68.005630 
	C274.251556,71.342110 272.831512,73.670036 269.979156,75.301636 
	C267.091156,76.953636 264.591797,76.153725 262.093201,74.402031 
	C241.726761,60.123699 218.813675,53.951241 194.247284,54.389778 
	C161.518143,54.974022 134.443680,68.143890 112.710396,92.655693 
	C94.221359,113.508499 84.785660,138.046616 84.543785,165.550827 
	C84.327530,190.142776 93.030159,212.150116 109.076187,230.994751 
	C111.303169,233.610123 114.064293,235.770676 117.013321,237.876587 
	C113.606697,228.634445 109.874725,219.596725 108.402977,209.919098 
	C103.240921,175.975754 110.166672,144.994354 133.448242,119.223610 
	C154.504776,95.915787 181.406754,86.328735 212.711807,90.670967 
	C245.160828,95.171867 268.768707,111.907921 278.963104,143.597839 
	C287.258728,169.385330 283.960388,193.796875 262.685516,213.122009 
	C248.623383,225.895401 231.801834,229.295746 213.397766,225.889450 
	C208.310974,224.947983 203.215973,223.859650 199.081161,220.464600 
	C196.020538,217.951538 193.211472,214.939163 195.204620,210.651184 
	C197.351807,206.031830 201.289200,206.451202 205.499771,207.758438 
	C218.523941,211.802032 231.508881,212.217590 243.620972,205.092072 
	C255.723099,197.972412 262.117157,186.601425 264.603577,173.114105 
	C267.348694,158.223709 264.356110,153.122192 250.439148,147.033722 
	C230.364349,138.251266 205.185516,143.411560 188.090210,159.783844 
	C185.352112,162.406128 182.905777,165.381500 178.498184,165.430557 
	C174.339600,165.476852 171.405777,163.746017 169.540558,160.237350 
	C167.751724,156.872375 168.689240,153.717819 171.086685,151.017700 
	C181.377045,139.428284 194.251663,132.122513 209.281937,128.762939 
	C225.982208,125.030090 239.959183,126.616707 257.485535,133.848053 
	C247.223679,119.690048 233.546341,111.875175 217.250015,108.487289 
	C185.339905,101.853439 152.663742,118.104713 137.910477,147.239609 
	C130.549194,161.776733 125.773514,176.973877 126.496574,193.235596 
	C128.371002,235.391968 154.115128,272.388611 198.280853,281.256897 
	C211.222092,283.855408 224.407135,283.429443 237.507339,281.259247 
	C241.261246,280.637360 245.104065,279.411682 248.969772,280.238800 
	C249.293488,282.624237 247.709503,283.256012 246.592361,284.131256 
	C231.342575,296.079071 213.733566,298.519257 195.107574,296.880920 
	C178.703522,295.438080 164.328964,288.760773 150.962830,279.625977 
	C143.629013,274.613861 135.408920,271.308167 127.725273,266.994751 
	C92.935669,247.464600 71.339241,218.198578 66.813362,178.412842 
	C60.780563,125.380356 82.827667,84.997299 126.658173,55.981934 
	C142.877197,45.245098 161.005219,39.251305 180.937317,37.631699 
z"/>
<path fill="#000000" opacity="1.000000" stroke="none" 
	d="
M274.274963,290.724731 
	C288.826294,301.323456 305.393951,306.442566 321.919464,311.643799 
	C331.296875,314.595245 340.515961,317.955322 349.472260,322.017426 
	C357.724426,325.760162 363.555511,331.756989 367.140045,340.159943 
	C373.234283,354.446167 377.192627,369.383301 381.181610,384.325470 
	C381.980164,387.316711 381.215302,389.167816 378.323853,390.741302 
	C357.750122,401.937042 335.458710,407.766693 312.700348,412.303406 
	C270.692719,420.677277 228.168716,421.614014 185.554092,421.432739 
	C177.444427,421.398224 177.457184,421.469635 175.360687,413.461304 
	C172.751831,403.495941 170.911972,393.326477 167.529861,383.568939 
	C166.786880,381.425476 167.760696,379.716278 168.265900,377.802399 
	C170.373383,369.818573 173.626297,361.894257 169.769089,353.508881 
	C168.718399,351.224701 167.959564,348.519012 165.781815,347.301636 
	C161.130997,344.701782 159.993378,340.382141 158.958130,335.759064 
	C156.124329,323.104218 153.180573,310.473938 150.249786,297.841003 
	C149.951553,296.555511 149.301743,295.315765 150.932541,293.298218 
	C153.849747,299.957092 156.476562,306.282867 159.365234,312.486633 
	C168.996002,333.169891 175.207657,355.265503 185.082916,375.792664 
	C191.413910,388.952545 199.500549,401.269348 206.849792,413.935272 
	C207.496750,415.050262 208.512558,415.951233 209.912155,417.609222 
	C220.338333,394.918976 229.305450,372.260406 238.022781,349.505737 
	C246.686935,326.889954 255.273087,304.237976 261.552765,279.874573 
	C266.071564,283.747070 270.024933,287.135010 274.274963,290.724731 
z"/>
<path fill="#000000" opacity="1.000000" stroke="none" 
	d="
M41.224197,319.036957 
	C43.165867,327.346039 45.038906,335.259918 46.882431,343.049103 
	C46.512009,343.463715 46.330517,343.869476 46.083477,343.914368 
	C33.326511,346.231781 34.839684,347.114685 31.625380,334.741608 
	C29.576031,326.852936 27.342947,319.002899 25.602591,311.045776 
	C24.009890,303.763702 25.693903,301.032806 32.775906,298.563477 
	C39.861645,296.092834 47.315193,295.105713 54.659279,293.765015 
	C58.670368,293.032776 61.504543,291.692352 62.159840,287.212677 
	C62.852486,282.477692 66.020943,279.926575 70.576645,279.255493 
	C76.818672,278.335999 83.087982,277.578094 89.362793,276.913269 
	C93.520096,276.472748 97.016106,278.052429 99.188988,281.615143 
	C100.966515,284.529572 103.311111,285.119812 106.374489,284.624451 
	C114.071144,283.379944 121.785561,282.244843 129.479767,280.985870 
	C136.215561,279.883728 139.221741,281.473877 140.805435,288.223572 
	C145.398834,307.800720 149.809265,327.422302 154.090408,347.070282 
	C155.435913,353.245422 149.599121,354.774994 146.769272,358.222351 
	C144.416962,356.784058 144.340637,354.820343 144.006729,353.092712 
	C140.564682,335.283356 135.760742,317.791595 131.764313,300.113403 
	C130.770828,295.718689 128.414627,293.745270 124.099533,294.110535 
	C120.177002,294.442535 115.330139,293.181122 114.544945,299.429138 
	C114.098351,302.982910 111.301071,304.470245 108.216972,304.906891 
	C94.044762,306.913422 80.060234,309.855286 66.086258,312.894745 
	C62.426426,313.690765 59.296082,312.001648 56.375320,309.878662 
	C53.373760,307.696960 43.323914,308.442871 40.877563,311.117676 
	C38.613651,313.592957 40.786865,316.135162 41.224197,319.036957 
M81.965019,295.539673 
	C84.666420,297.353058 86.732941,296.402527 88.141891,293.863708 
	C89.298355,291.779938 88.354790,290.022888 86.619049,288.669739 
	C84.859955,287.298401 83.000893,286.912537 81.266281,288.650299 
	C79.103134,290.817322 79.234383,293.018890 81.965019,295.539673 
z"/>
<path fill="#000000" opacity="1.000000" stroke="none" 
	d="
M72.919464,446.150818 
	C66.857231,446.661835 63.264591,444.207520 61.605434,438.798248 
	C60.143063,434.030518 58.655685,429.266815 57.006508,424.561920 
	C56.390175,422.803619 56.007084,420.461548 53.107845,420.975342 
	C41.150928,423.094360 33.375149,416.572601 27.201578,407.743408 
	C18.163836,394.817993 16.602022,380.036591 17.989807,364.793915 
	C18.296535,361.424957 19.887094,358.359375 23.043528,356.575165 
	C32.284000,351.352051 48.740887,347.030060 60.366970,355.629120 
	C65.349380,359.314301 68.411583,363.691895 68.932716,370.447418 
	C69.292404,375.110046 72.237869,379.614746 73.266632,384.479858 
	C75.245056,393.836029 75.834747,402.735931 67.000160,409.304901 
	C65.659950,410.301453 65.785637,411.405457 66.325478,412.807434 
	C68.175194,417.611298 69.972549,422.437378 71.672752,427.295959 
	C72.674255,430.157898 74.576698,431.091583 77.461365,430.674591 
	C90.280388,428.821503 103.109428,427.037506 115.926384,425.170471 
	C119.152496,424.700531 122.370407,423.802765 123.108315,428.600464 
	C124.173241,435.524261 123.136726,437.434814 118.015541,438.505096 
	C103.222504,441.596710 88.262581,443.684143 72.919464,446.150818 
M28.193466,368.881805 
	C26.979223,379.644562 28.777849,389.921997 34.937080,398.823395 
	C41.579399,408.422974 60.398003,406.512115 65.754044,396.108765 
	C67.551361,392.617737 66.163498,390.200012 62.154095,390.235718 
	C59.678642,390.257721 57.213562,390.932892 54.733047,391.025269 
	C51.475163,391.146545 47.980568,392.476776 44.977467,389.982849 
	C45.687054,387.448944 47.621960,387.061676 49.311020,386.606323 
	C53.157204,385.569397 57.053329,384.713379 60.941219,383.837372 
	C62.905525,383.394775 65.232964,383.178162 65.492699,380.727112 
	C65.766830,378.140137 63.523777,377.115021 61.581753,376.118500 
	C59.677559,375.141388 57.692139,375.448517 55.714066,375.852356 
	C52.114075,376.587250 48.493187,377.179047 44.804451,376.911072 
	C42.848682,376.769012 40.704071,376.748169 40.362144,373.645203 
	C46.052116,368.988800 53.902035,371.492218 60.067081,368.281219 
	C55.605633,360.205719 36.566837,360.267639 28.193466,368.881805 
z"/>
<path fill="#000000" opacity="1.000000" stroke="none" 
	d="
M243.986679,260.959412 
	C237.218246,254.319550 240.669830,242.484222 249.238861,238.667068 
	C255.839890,235.726578 262.881165,234.697891 268.915649,238.484650 
	C278.410156,244.442612 287.484558,242.432236 296.517853,238.696060 
	C310.643738,232.853561 321.080597,223.014938 326.553070,208.418625 
	C327.383392,206.203979 328.163055,204.129837 326.185486,201.939651 
	C325.018433,200.647079 325.329926,198.813950 325.845490,197.161194 
	C330.933685,180.849655 331.975037,164.267044 329.182617,147.424225 
	C329.077332,146.789032 329.169189,146.121170 329.169189,145.495316 
	C338.026123,142.330505 344.019196,145.652252 345.789459,155.817261 
	C348.020721,168.629547 348.036743,181.614182 346.291626,194.548065 
	C345.895905,197.480942 344.616608,199.959930 342.082336,201.608902 
	C340.419922,202.690567 339.748871,204.213425 339.263397,206.084427 
	C331.864899,234.598175 310.579468,253.057083 281.434875,256.098541 
	C278.592072,256.395203 276.620087,257.167236 274.657379,259.382324 
	C266.557129,268.524323 253.602921,269.188629 243.986679,260.959412 
z"/>
<path fill="#000000" opacity="1.000000" stroke="none" 
	d="
M230.910889,324.057312 
	C231.925934,325.733215 233.443878,326.776489 233.307495,328.631195 
	C232.185181,330.289581 230.650574,329.749054 229.204849,329.538361 
	C220.228546,328.230133 215.718002,332.689880 217.362503,341.495361 
	C219.100235,350.800049 221.028320,360.069641 222.931808,369.342529 
	C223.378159,371.516937 223.472290,373.586670 222.594986,375.689484 
	C218.698746,385.028320 214.784973,394.356567 209.910706,403.129761 
	C207.748489,403.429382 207.137665,401.869202 206.378250,400.672485 
	C200.764038,391.825195 195.213043,382.937714 189.597488,374.091278 
	C188.183548,371.863861 188.837433,369.606140 189.206421,367.322388 
	C190.770294,357.642853 192.425995,347.976929 193.863037,338.278625 
	C194.729660,332.429871 187.227859,326.496582 181.678787,328.443390 
	C179.695755,329.139069 177.770798,330.257996 175.596375,329.718842 
	C175.024124,327.728851 176.162109,326.578003 177.016037,325.426971 
	C179.591492,321.955475 182.846817,318.857880 184.793777,315.077240 
	C189.104492,306.706787 195.837601,305.574249 204.528854,305.319824 
	C214.112213,305.039246 220.846085,307.353027 225.223450,316.043579 
	C226.628372,318.832855 228.855286,321.208069 230.910889,324.057312 
z"/>
<path fill="#000000" opacity="1.000000" stroke="none" 
	d="
M154.570068,356.719849 
	C156.714401,353.281494 158.907867,350.490753 163.167252,352.407532 
	C166.731125,354.011353 169.253738,359.434967 167.795380,363.503845 
	C165.445023,370.061432 162.566971,376.430664 159.887878,382.869476 
	C154.593460,395.593811 149.294846,408.316467 143.958084,421.023041 
	C143.473267,422.177429 143.336716,423.694305 141.478897,424.102264 
	C139.521133,421.554901 140.632523,417.610779 137.642914,415.397583 
	C134.531937,413.094513 131.673248,414.894257 127.749054,415.867554 
	C136.845398,395.803680 145.626755,376.434509 154.570068,356.719849 
z"/>
<path fill="#000000" opacity="1.000000" stroke="none" 
	d="
M54.015419,329.727936 
	C53.479816,326.869568 55.189095,326.338898 57.007862,325.646667 
	C61.868389,323.796783 66.960617,323.003326 72.046898,322.271637 
	C75.667397,321.750824 79.286652,321.727142 82.163895,318.844147 
	C83.809410,317.195343 85.253036,318.395782 86.090584,320.064575 
	C87.051178,321.978455 87.571785,324.311646 84.925362,325.006989 
	C80.761360,326.100983 81.458275,328.623108 82.325996,331.492645 
	C83.334045,334.826233 84.113777,338.239197 85.302399,341.504974 
	C86.525482,344.865417 85.403404,346.650238 82.084267,347.207428 
	C76.035797,348.222748 69.969063,349.128937 63.911980,350.093384 
	C60.320778,350.665192 58.779743,348.699432 58.018333,345.540375 
	C56.776066,340.386322 55.425426,335.258423 54.015419,329.727936 
M63.095551,338.736755 
	C62.807533,343.148315 64.713249,344.770538 69.063515,343.618591 
	C70.969620,343.113861 72.962982,342.909302 74.929153,342.670898 
	C76.265419,342.508881 77.641426,342.472198 78.331520,341.085449 
	C78.865639,340.012085 78.229675,339.073334 77.486084,338.456299 
	C76.153397,337.350433 74.826912,338.321045 73.910683,339.102997 
	C69.814384,342.598938 66.364784,340.937195 63.118076,337.268646 
	C63.862373,334.737823 66.187103,335.221100 68.000038,334.607300 
	C70.953163,333.607422 74.613884,333.418793 75.493698,329.322052 
	C71.379234,327.947021 65.370186,328.646606 61.130718,330.912537 
	C60.989723,333.454376 61.738869,335.782837 63.095551,338.736755 
z"/>
<path fill="#000000" opacity="1.000000" stroke="none" 
	d="
M99.564301,418.845306 
	C95.193085,419.481079 91.174858,419.699524 87.324348,420.619781 
	C83.643066,421.499573 81.769394,419.890411 81.028687,416.818939 
	C79.748566,411.510681 78.821091,406.115143 77.827797,400.741058 
	C77.398643,398.419220 78.459373,396.756653 80.741676,396.262177 
	C88.511147,394.578796 96.304604,393.005402 104.095039,391.420166 
	C105.697525,391.094086 106.627632,391.979797 107.023254,393.429749 
	C107.434135,394.935638 106.831779,396.278259 105.419388,396.644775 
	C101.519691,397.656769 102.259727,400.102356 103.091690,402.850891 
	C103.905891,405.540680 104.382484,408.330902 105.136688,411.041016 
	C106.983215,417.676300 106.978813,417.719543 99.564301,418.845306 
M88.743713,399.857117 
	C87.152725,400.649811 85.044456,399.985413 83.545357,401.826569 
	C84.243843,405.858185 87.447762,404.981476 90.034752,404.755096 
	C92.599922,404.530579 96.987160,405.470795 96.764694,401.894531 
	C96.495827,397.572235 92.168564,399.775146 88.743713,399.857117 
M96.870964,413.740356 
	C97.833122,413.528503 98.984627,413.450653 98.911118,412.082672 
	C98.847176,410.892639 97.937981,410.362366 96.871841,410.292236 
	C93.296783,410.057007 89.687065,409.460114 86.002472,410.791656 
	C86.095055,413.870056 86.527931,416.039337 90.310555,414.981598 
	C92.212608,414.449677 94.208710,414.254120 96.870964,413.740356 
z"/>
<path fill="#000000" opacity="1.000000" stroke="none" 
	d="
M157.024048,430.327301 
	C153.309067,430.868011 149.228836,433.827759 146.892456,430.941376 
	C144.860580,428.431183 147.824036,424.728668 149.224396,421.803070 
	C153.728622,412.392975 158.525528,403.118713 161.396103,393.183411 
	C163.626358,393.129547 163.600464,394.703186 163.817841,395.611145 
	C165.400299,402.221436 167.104507,408.822906 168.223831,415.518463 
	C169.551620,423.461182 168.007233,425.843170 160.693237,429.031036 
	C159.628250,429.495209 158.511520,429.840698 157.024048,430.327301 
z"/>
<path fill="#000000" opacity="1.000000" stroke="none" 
	d="
M74.980309,365.085754 
	C71.124985,362.499146 71.980789,360.907379 75.654297,359.714783 
	C80.390312,358.177216 85.503502,359.087372 90.234070,357.272827 
	C91.830811,356.660339 93.101768,358.163208 93.172417,359.846832 
	C93.460602,366.714233 95.531998,373.203644 97.199295,379.781372 
	C98.231995,383.855530 97.032433,385.183258 92.638603,384.398438 
	C87.935371,383.558350 83.045464,383.847076 78.419258,382.276917 
	C76.672287,381.684021 74.733543,381.291382 74.315704,379.161285 
	C73.903069,377.057739 75.427765,375.700531 76.871849,374.646667 
	C79.543839,372.696716 82.385971,370.978149 85.174629,369.190338 
	C87.402618,367.761993 88.934776,366.082947 87.613373,362.649719 
	C84.748184,364.807007 82.173744,366.745392 79.727425,368.587311 
	C77.427956,368.116699 78.225769,364.297791 74.980309,365.085754 
M89.059921,378.910370 
	C93.164322,377.891205 90.962402,375.847809 90.072075,373.653168 
	C87.459427,374.846558 85.204117,375.935913 83.190559,377.807159 
	C85.017120,379.111938 86.730072,378.716431 89.059921,378.910370 
z"/>
<path fill="#000000" opacity="1.000000" stroke="none" 
	d="
M112.949371,359.842224 
	C118.835579,358.436096 124.308853,357.046021 129.830399,355.885742 
	C131.716507,355.489410 134.105972,355.100372 134.757156,357.806549 
	C135.337936,360.220093 133.661362,361.593048 131.627335,362.208618 
	C123.678307,364.614288 115.703682,366.938965 107.704124,369.170288 
	C106.471870,369.513977 105.048645,369.314911 103.732666,369.180939 
	C102.058044,369.010437 101.007896,368.022552 100.811569,366.295380 
	C100.615608,364.571350 101.365616,363.370514 103.012413,362.850159 
	C106.182495,361.848389 109.373199,360.911896 112.949371,359.842224 
z"/>
<path fill="#000000" opacity="1.000000" stroke="none" 
	d="
M126.253220,325.767303 
	C115.972839,327.836517 106.007614,329.514618 95.925354,330.392303 
	C93.892891,330.569244 91.591705,330.675110 91.237213,328.000366 
	C90.861145,325.162659 93.293686,325.037689 95.241386,324.724487 
	C104.233910,323.278351 113.212021,321.718231 122.236435,320.504913 
	C126.907547,319.876923 127.894775,321.282440 126.253220,325.767303 
z"/>
<path fill="#000000" opacity="1.000000" stroke="none" 
	d="
M157.842239,199.122131 
	C159.597641,193.745239 162.762543,191.347244 166.823608,192.220032 
	C170.941498,193.105087 173.725098,195.456268 173.768066,199.995789 
	C173.804199,203.814133 170.452530,206.950150 166.323257,207.192062 
	C161.733215,207.460953 158.846100,204.855576 157.842239,199.122131 
z"/>
<path fill="#000000" opacity="1.000000" stroke="none" 
	d="
M125.696060,423.995911 
	C125.604385,419.023132 129.263077,417.864441 132.645325,417.314758 
	C136.149033,416.745361 139.304718,420.245209 139.344879,423.795929 
	C139.412201,429.747009 133.844513,435.922302 128.000961,436.152527 
	C126.577255,432.365570 128.978668,427.784698 125.696060,423.995911 
z"/>
<path fill="#000000" opacity="1.000000" stroke="none" 
	d="
M282.950317,76.690254 
	C288.023315,75.258102 290.982452,77.225250 292.610229,81.611992 
	C294.150238,85.762161 292.499268,88.797760 289.029053,90.930489 
	C285.103546,93.343033 281.923340,91.386642 279.330750,88.526779 
	C276.158997,85.028053 277.394073,80.994240 282.950317,76.690254 
z"/>
<path fill="#000000" opacity="1.000000" stroke="none" 
	d="
M222.046295,247.056763 
	C229.100677,243.270844 234.096512,245.520004 234.383499,252.190628 
	C234.525604,255.493530 234.064224,258.563660 230.707886,260.182037 
	C227.492249,261.732574 224.452576,260.969849 222.043991,258.577850 
	C219.463943,256.015594 219.025360,252.803650 220.457733,249.430725 
	C220.775055,248.683533 221.320068,248.033051 222.046295,247.056763 
z"/>
<path fill="#000000" opacity="1.000000" stroke="none" 
	d="
M213.144241,247.293030 
	C212.025040,254.885498 207.897919,257.989502 202.724976,255.463638 
	C199.722092,253.997375 197.514236,251.657806 197.845093,248.117523 
	C198.182968,244.502090 200.451157,242.037735 203.994415,241.196548 
	C207.399048,240.388275 210.139618,241.757645 212.066071,244.649109 
	C212.515732,245.324066 212.746735,246.144730 213.144241,247.293030 
z"/>
<path fill="#000000" opacity="1.000000" stroke="none" 
	d="
M180.310883,234.196075 
	C183.793335,230.855713 187.163193,231.160339 190.509811,233.608047 
	C193.726089,235.960403 193.842010,239.251022 192.611404,242.588486 
	C191.427002,245.800720 188.691910,247.040939 185.424606,246.892868 
	C179.722382,246.634399 177.089890,240.468597 180.310883,234.196075 
z"/>
<path fill="#000000" opacity="1.000000" stroke="none" 
	d="
M312.643311,142.488068 
	C316.753326,139.496796 320.243774,140.609268 323.198395,143.493668 
	C325.745087,145.979813 325.751587,149.224854 324.039520,152.183899 
	C322.084198,155.563477 318.638794,155.763062 315.288635,155.191895 
	C309.772278,154.251450 308.397156,148.206985 312.643311,142.488068 
z"/>
<path fill="#000000" opacity="1.000000" stroke="none" 
	d="
M319.295959,125.783859 
	C318.142456,130.516418 315.400269,132.801590 310.909149,132.189606 
	C307.473175,131.721405 305.156799,129.665314 304.726013,126.018394 
	C304.224121,121.769585 306.213043,118.979187 310.096832,117.521561 
	C314.825134,115.746964 318.784241,119.153816 319.295959,125.783859 
z"/>
<path fill="#000000" opacity="1.000000" stroke="none" 
	d="
M291.759338,219.841019 
	C291.921326,215.101440 294.036987,212.126755 298.308563,211.324768 
	C301.510712,210.723557 304.142395,212.267593 305.767883,215.105209 
	C307.841980,218.726013 306.362213,223.332581 302.641876,225.263657 
	C298.254761,227.540863 294.172485,225.655594 291.759338,219.841019 
z"/>
<path fill="#000000" opacity="1.000000" stroke="none" 
	d="
M164.645325,224.014999 
	C162.909775,220.260757 164.000870,217.402740 166.534134,215.109634 
	C169.045044,212.836761 172.247742,213.185608 175.054916,214.180145 
	C178.727676,215.481339 179.991058,218.503464 178.891495,222.249939 
	C177.736786,226.184326 173.115372,228.871841 169.546356,227.799728 
	C167.595947,227.213837 165.851471,226.265488 164.645325,224.014999 
z"/>
<path fill="#000000" opacity="1.000000" stroke="none" 
	d="
M293.696228,102.871002 
	C293.642578,97.782852 295.980225,95.361404 300.626923,95.385063 
	C305.008423,95.407387 308.042694,98.194679 308.272644,102.170723 
	C308.498260,106.072891 305.566040,109.902916 301.731628,110.163330 
	C296.988464,110.485451 294.367798,107.935036 293.696228,102.871002 
z"/>
<path fill="#000000" opacity="1.000000" stroke="none" 
	d="
M160.837280,173.213531 
	C164.044174,170.253891 167.224533,169.056000 171.077362,171.085419 
	C173.615936,172.422531 174.463348,174.464676 174.414749,177.216492 
	C174.327087,182.179855 172.381973,184.246857 167.512390,184.260483 
	C162.257965,184.275192 159.483154,181.692368 159.717804,176.847488 
	C159.771713,175.733994 160.291504,174.643051 160.837280,173.213531 
z"/>
<path fill="#000000" opacity="1.000000" stroke="none" 
	d="
M305.454010,200.508270 
	C303.678741,196.730881 304.355957,193.712784 307.207977,191.261063 
	C309.606995,189.198776 312.371796,189.224045 315.144623,190.367004 
	C317.784485,191.455154 318.852783,193.827820 318.772675,196.383804 
	C318.668396,199.711868 317.071167,202.607803 313.869537,203.877106 
	C310.448792,205.233261 307.799713,203.468933 305.454010,200.508270 
z"/>
<path fill="#000000" opacity="1.000000" stroke="none" 
	d="
M319.679565,167.048401 
	C324.595947,170.821259 325.165955,173.662140 322.113251,177.564514 
	C319.638367,180.728241 315.428650,181.167511 311.975342,178.622375 
	C308.851990,176.320435 308.151367,172.107315 310.407196,168.966171 
	C312.763672,165.684875 315.976715,165.969528 319.679565,167.048401 
z"/>
<path fill="#000000" opacity="1.000000" stroke="none" 
	d="
M286.727753,239.712479 
	C283.518127,241.488358 280.489136,242.760376 277.721619,239.951492 
	C275.289032,237.482559 274.320984,234.631546 276.910126,231.516281 
	C279.683594,228.179199 283.457581,227.428528 286.576691,229.935272 
	C290.206238,232.852203 289.807495,236.153625 286.727753,239.712479 
z"/>
<path fill="#000000" opacity="1.000000" stroke="none" 
	d="
M129.736084,399.443848 
	C125.421593,403.795288 120.074913,403.879517 114.849838,404.219116 
	C113.205879,404.325958 111.997704,403.230865 111.684601,401.606415 
	C111.309380,399.659729 112.710854,399.054504 114.286819,398.713226 
	C118.474388,397.806519 122.641502,396.789734 126.853813,396.019348 
	C129.048996,395.617889 130.428787,396.524506 129.736084,399.443848 
z"/>
</svg>