<svg width="786" height="172" viewBox="0 0 786 172" fill="none" xmlns="http://www.w3.org/2000/svg">
<path d="M59.3539 11.7318C62.5729 11.3658 65.6886 10.9868 68.8391 11.0004C78.2646 11.0408 87.2359 13.14 95.8098 16.977C99.9348 18.823 103.897 20.9792 107.377 23.9113C109.093 25.3571 109.44 27.4543 108.316 29.1951C107.236 30.8657 104.988 31.4976 103.089 30.5693C102.073 30.0724 101.135 29.4129 100.165 28.8222C92.5194 24.1679 84.2987 21.1601 75.3721 20.1906C63.0913 18.8567 51.663 21.5973 40.9595 27.5617C30.3447 33.4766 22.2899 41.95 16.4825 52.5794C12.5865 59.7103 10.1158 67.3417 9.36459 75.4207C8.20745 87.8651 10.8326 99.5078 17.434 110.196C18.7923 112.395 20.2789 114.495 21.9523 116.46C23.6217 118.42 25.3942 120.284 27.5198 122.069C25.7653 118.128 24.4137 114.225 23.37 110.209C21.6593 103.625 21.0652 96.9339 21.4836 90.1712C21.9412 82.7758 23.6148 75.6257 26.8491 68.9444C33.7383 54.7131 44.5148 44.8872 60.0289 40.9544C72.6019 37.7671 84.3736 39.9737 94.8307 47.7417C102.819 53.6758 107.601 61.7712 109.095 71.6124C110.493 80.8205 108.549 89.3527 102.763 96.7725C97.4183 103.626 90.3598 107.47 81.6479 108.277C76.7599 108.73 72.184 107.512 67.65 105.983C65.7613 105.346 64.9456 103.49 65.5524 101.556C66.1146 99.7631 67.7575 98.8848 69.7033 99.3774C71.7182 99.8876 73.6768 100.588 75.7578 100.873C83.3155 101.909 89.771 99.7315 95.0808 94.283C99.0856 90.1736 101.293 85.2163 101.786 79.4823C101.894 78.2319 102.004 77.011 101.812 75.756C101.716 75.1321 101.478 74.7364 100.99 74.3699C94.9717 69.8549 88.2789 67.495 80.7053 68.2378C74.2486 68.8711 68.6433 71.583 63.7029 75.7218C62.6297 76.6209 61.5659 77.5328 60.6588 78.618C59.3353 80.2014 57.2207 80.3897 55.7088 79.1115C54.2588 77.8856 54.055 75.6368 55.3652 74.1052C57.2186 71.9384 59.3277 70.0248 61.6163 68.3264C66.4399 64.7467 71.7907 62.3167 77.7286 61.3367C84.484 60.2219 90.9974 61.177 97.247 63.9613C97.6883 64.158 98.0919 64.4612 98.7535 64.4692C97.8917 62.7133 96.966 61.0879 95.8067 59.6137C90.6945 53.1133 84.0467 49.2597 75.8371 48.1621C64.6725 46.6695 54.9342 50.0638 46.4218 57.123C37.6994 64.3564 32.72 73.8909 30.9809 84.9361C28.1762 102.749 32.8724 118.599 44.7798 132.141C53.7883 142.387 65.2174 148.593 78.6536 150.789C94.5683 153.389 109.295 149.848 122.808 141.223C134.775 133.584 143.465 123.083 149.228 110.145C152.127 103.635 153.913 96.8164 154.792 89.7429C155.214 86.346 155.269 82.9466 155.246 79.5374C155.238 78.4606 155.339 77.3933 155.927 76.4743C156.858 75.021 158.221 74.2546 159.96 74.4172C161.694 74.5792 162.89 75.5636 163.554 77.1668C163.816 77.7992 163.943 78.4717 163.968 79.1602C164.289 88.2022 163.253 97.0871 160.633 105.747C157.452 116.259 152.211 125.665 145.093 134.037C137.375 143.113 128.069 150.057 117.202 154.899C110.974 157.674 104.454 159.454 97.6906 160.358C82.5421 162.383 68.2854 159.594 54.8813 152.368C49.9252 149.696 45.3679 146.417 41.3369 142.465C37.9199 139.115 33.9196 136.658 29.8146 134.247C18.7933 127.772 10.7788 118.527 5.57586 106.86C1.41659 97.5341 -0.475375 87.7491 0.101382 77.5546C0.786469 65.4452 4.41869 54.2366 10.883 43.964C16.1017 35.671 22.7784 28.7529 30.8176 23.1758C39.4173 17.2097 48.9173 13.4231 59.3539 11.7318Z" fill="#262626"/>
<path d="M127.516 80.7196C128.176 77.819 130.337 76.4964 132.776 77.4156C134.398 78.0273 135.548 79.9632 135.249 81.5794C134.886 83.5434 133.329 84.9434 131.433 85.0118C129.637 85.0766 128.024 83.7717 127.644 81.9299C127.568 81.5634 127.547 81.1857 127.516 80.7196Z" fill="#262626"/>
<path d="M127.904 89.6283C130.487 89.3752 132.486 91.0144 132.574 93.3666C132.654 95.4902 130.696 97.3808 128.48 97.3203C126.672 97.271 125.018 95.706 124.764 93.8033C124.516 91.9497 125.804 90.1933 127.904 89.6283Z" fill="#262626"/>
<path d="M132.411 55.8741C132.248 58.2574 130.578 59.8604 128.465 59.7572C126.446 59.6587 124.712 57.8759 124.729 55.9169C124.749 53.7345 126.42 51.9812 128.539 51.9211C130.663 51.8608 132.281 53.4772 132.411 55.8741Z" fill="#262626"/>
<path d="M111.709 36.6036C110.422 34.645 110.403 33.1089 111.593 31.6351C112.616 30.3695 114.38 29.8786 115.901 30.4366C117.431 30.998 118.438 32.3764 118.483 33.9731C118.528 35.5443 117.626 37.0049 116.234 37.6146C114.692 38.2896 113.123 37.9571 111.709 36.6036Z" fill="#262626"/>
<path d="M111.479 114.977C111.608 112.718 112.734 111.359 114.64 111.071C116.59 110.777 118.32 111.769 118.976 113.557C119.576 115.192 118.828 117.228 117.274 118.188C114.842 119.689 111.784 118.042 111.479 114.977Z" fill="#262626"/>
<path d="M108.878 120.987C109.552 123.683 107.898 125.407 106.414 125.921C104.584 126.555 102.488 125.64 101.681 123.866C100.862 122.063 101.527 119.951 103.23 118.943C104.968 117.914 107.202 118.37 108.368 120.007C108.564 120.281 108.693 120.601 108.878 120.987Z" fill="#262626"/>
<path d="M89.7742 125.345C90.4922 123.687 91.6891 122.801 93.4072 122.809C94.9693 122.817 96.1519 123.59 96.8329 125.007C97.5313 126.46 97.396 127.86 96.3743 129.138C95.2347 130.564 93.3121 130.885 91.5542 130.073C90.2004 129.447 89.011 127.209 89.7742 125.345Z" fill="#262626"/>
<path d="M121.263 108.121C119.832 107.254 119.16 106.034 119.341 104.472C119.534 102.793 120.481 101.604 122.12 101.093C123.633 100.622 124.958 101.082 126.042 102.18C127.253 103.407 127.395 105.213 126.47 106.771C125.6 108.236 123.933 108.933 122.296 108.502C121.97 108.416 121.658 108.279 121.263 108.121Z" fill="#262626"/>
<path d="M125.809 46.6189C123.564 48.6784 120.748 48.2514 119.482 45.729C118.71 44.1905 119.147 42.2164 120.502 41.123C121.935 39.9675 123.92 39.9269 125.33 41.0244C126.739 42.1214 127.226 44.1488 126.439 45.7174C126.288 46.0177 126.06 46.2791 125.809 46.6189Z" fill="#262626"/>
<path d="M127.715 68.7289C127.745 66.7244 128.716 65.2325 130.248 64.7192C131.797 64.1999 133.599 64.6815 134.564 65.9233C135.564 67.2104 135.665 68.6564 135.008 70.095C134.368 71.4973 132.721 72.4237 131.308 72.2602C129.653 72.0688 128.537 71.1389 127.94 69.5893C127.846 69.3436 127.799 69.0793 127.715 68.7289Z" fill="#262626"/>
<path d="M53.072 110.825C50.8553 110.166 49.8197 108.547 50.1102 106.31C50.3232 104.67 51.9812 103.274 53.8027 103.203C55.5887 103.133 57.2925 104.612 57.6588 106.551C58.1167 108.974 55.7701 111.219 53.072 110.825Z" fill="#262626"/>
<path d="M65.6069 124.86C64.9917 121.193 68.1355 119.38 70.686 120.365C72.2505 120.969 73.256 122.565 73.1245 124.214C72.9989 125.789 71.7589 127.195 70.1703 127.565C68.4984 127.954 66.8218 127.246 65.9899 125.785C65.8414 125.524 65.7456 125.233 65.6069 124.86Z" fill="#262626"/>
<path d="M63.8233 116.457C63.8592 118.766 62.2941 120.551 60.195 120.711C58.4972 120.84 56.6351 119.324 56.2859 117.529C55.9199 115.647 57.1649 113.756 59.1275 113.212C61.2222 112.631 63.1306 113.917 63.8233 116.457Z" fill="#262626"/>
<path d="M80.7134 131.18C78.1391 130.545 77.0445 129.07 77.3694 126.791C77.6314 124.954 79.1098 123.621 80.9345 123.576C82.7795 123.53 84.5019 124.961 84.7974 126.783C85.1047 128.679 84.084 130.381 82.2565 130.951C81.7938 131.095 81.2919 131.114 80.7134 131.18Z" fill="#262626"/>
<path d="M51.9449 88.7223C50.2672 87.997 49.443 86.7664 49.5226 85.0419C49.6067 83.2205 50.6085 81.9506 52.2168 81.5174C53.8047 81.0897 55.156 81.6038 56.153 82.8466C57.1195 84.0513 57.3473 85.4272 56.6012 86.8662C55.8485 88.3178 54.6569 89.034 53.0198 88.9605C52.6863 88.9455 52.3574 88.8264 51.9449 88.7223Z" fill="#262626"/>
<path d="M50.5363 92.4655C53.8348 91.899 55.8934 95.1773 54.8061 97.6685C54.1254 99.2282 52.5237 100.169 50.8811 99.9382C49.208 99.7033 47.8624 98.3912 47.624 96.7625C47.3541 94.9183 48.1432 93.4503 49.8038 92.719C50.0106 92.6279 50.2293 92.5639 50.5363 92.4655Z" fill="#262626"/>
<path d="M233.472 138H213.504L249.861 34.7273H272.956L309.364 138H289.395L261.812 55.9062H261.005L233.472 138ZM234.128 97.5078H288.588V112.535H234.128V97.5078ZM422.033 34.7273V138H405.393L356.731 67.6555H355.874V138H337.166V34.7273H353.908L402.518 105.122H403.426V34.7273H422.033ZM449.558 34.7273H470.687L495.95 80.4134H496.959L522.222 34.7273H543.351L505.784 99.4744V138H487.126V99.4744L449.558 34.7273ZM657.256 86.3636C657.256 97.491 655.172 107.022 651.003 114.955C646.868 122.855 641.221 128.906 634.06 133.109C626.933 137.311 618.848 139.412 609.805 139.412C600.762 139.412 592.66 137.311 585.5 133.109C578.373 128.873 572.725 122.805 568.557 114.905C564.422 106.971 562.354 97.4574 562.354 86.3636C562.354 75.2363 564.422 65.7225 568.557 57.8224C572.725 49.8887 578.373 43.8208 585.5 39.6186C592.66 35.4164 600.762 33.3153 609.805 33.3153C618.848 33.3153 626.933 35.4164 634.06 39.6186C641.221 43.8208 646.868 49.8887 651.003 57.8224C655.172 65.7225 657.256 75.2363 657.256 86.3636ZM638.447 86.3636C638.447 78.5308 637.22 71.925 634.766 66.5462C632.346 61.1338 628.984 57.0492 624.681 54.2926C620.378 51.5024 615.419 50.1072 609.805 50.1072C604.191 50.1072 599.232 51.5024 594.929 54.2926C590.626 57.0492 587.248 61.1338 584.794 66.5462C582.373 71.925 581.163 78.5308 581.163 86.3636C581.163 94.1965 582.373 100.819 584.794 106.232C587.248 111.61 590.626 115.695 594.929 118.485C599.232 121.242 604.191 122.62 609.805 122.62C615.419 122.62 620.378 121.242 624.681 118.485C628.984 115.695 632.346 111.61 634.766 106.232C637.22 100.819 638.447 94.1965 638.447 86.3636ZM774.01 34.7273V138H757.37L708.708 67.6555H707.851V138H689.143V34.7273H705.885L754.495 105.122H755.403V34.7273H774.01Z" fill="black"/>
</svg>
